<mxfile host="65bd71144e">
    <diagram id="hro7Z4Zt6wdqgMpPpdO3" name="Page-1">
        <mxGraphModel dx="861" dy="2763" grid="1" gridSize="10" guides="1" tooltips="1" connect="1" arrows="1" fold="1" page="1" pageScale="1" pageWidth="850" pageHeight="1100" math="0" shadow="0">
            <root>
                <mxCell id="0"/>
                <mxCell id="1" parent="0"/>
                <mxCell id="8" style="html=1;edgeStyle=orthogonalEdgeStyle;" edge="1" parent="1">
                    <mxGeometry relative="1" as="geometry">
                        <mxPoint x="320" y="-1310" as="targetPoint"/>
                        <mxPoint x="250" y="-1410" as="sourcePoint"/>
                        <Array as="points">
                            <mxPoint x="250" y="-1360"/>
                            <mxPoint x="321" y="-1360"/>
                        </Array>
                    </mxGeometry>
                </mxCell>
                <mxCell id="2" value="" style="rounded=0;whiteSpace=wrap;html=1;fillColor=#60a917;strokeColor=#2D7600;fontColor=#ffffff;" vertex="1" parent="1">
                    <mxGeometry x="190" y="-1640" width="140" height="230" as="geometry"/>
                </mxCell>
                <mxCell id="4" value="" style="rounded=0;whiteSpace=wrap;html=1;fillColor=#60a917;strokeColor=#2D7600;fontColor=#ffffff;" vertex="1" parent="1">
                    <mxGeometry x="400" y="-1640" width="140" height="230" as="geometry"/>
                </mxCell>
                <mxCell id="14" value="User" style="text;html=1;align=center;verticalAlign=middle;whiteSpace=wrap;rounded=0;fontStyle=1;fontColor=#FFFFFF;labelBackgroundColor=none;labelBorderColor=none;textShadow=0;fontSize=20;" vertex="1" parent="1">
                    <mxGeometry x="430" y="-1630" width="80" height="35" as="geometry"/>
                </mxCell>
                <mxCell id="15" value="Customer" style="text;html=1;align=center;verticalAlign=middle;whiteSpace=wrap;rounded=0;fontStyle=1;fontColor=#FFFFFF;labelBackgroundColor=none;labelBorderColor=none;textShadow=0;fontSize=20;" vertex="1" parent="1">
                    <mxGeometry x="220" y="-1630" width="80" height="35" as="geometry"/>
                </mxCell>
                <mxCell id="19" style="html=1;edgeStyle=orthogonalEdgeStyle;" edge="1" parent="1">
                    <mxGeometry relative="1" as="geometry">
                        <mxPoint x="400" y="-1310" as="targetPoint"/>
                        <mxPoint x="469" y="-1410" as="sourcePoint"/>
                        <Array as="points">
                            <mxPoint x="470" y="-1410"/>
                            <mxPoint x="470" y="-1360"/>
                            <mxPoint x="400" y="-1360"/>
                        </Array>
                    </mxGeometry>
                </mxCell>
                <mxCell id="23" style="edgeStyle=none;html=1;" edge="1" parent="1" source="20">
                    <mxGeometry relative="1" as="geometry">
                        <mxPoint x="360" y="-1030" as="targetPoint"/>
                    </mxGeometry>
                </mxCell>
                <mxCell id="20" value="" style="rounded=0;whiteSpace=wrap;html=1;fillColor=#60a917;strokeColor=#2D7600;fontColor=#ffffff;" vertex="1" parent="1">
                    <mxGeometry x="290" y="-1310" width="140" height="230" as="geometry"/>
                </mxCell>
                <mxCell id="21" value="Transaction" style="text;html=1;align=center;verticalAlign=middle;whiteSpace=wrap;rounded=0;fontColor=#FFFFFF;fontStyle=1;fontSize=20;" vertex="1" parent="1">
                    <mxGeometry x="330" y="-1300" width="60" height="30" as="geometry"/>
                </mxCell>
                <mxCell id="26" style="edgeStyle=none;html=1;" edge="1" parent="1" source="24">
                    <mxGeometry relative="1" as="geometry">
                        <mxPoint x="360" y="-760" as="targetPoint"/>
                    </mxGeometry>
                </mxCell>
                <mxCell id="24" value="" style="rounded=0;whiteSpace=wrap;html=1;fillColor=#60a917;strokeColor=#2D7600;fontColor=#ffffff;" vertex="1" parent="1">
                    <mxGeometry x="290" y="-1030" width="140" height="230" as="geometry"/>
                </mxCell>
                <mxCell id="25" value="Products" style="text;html=1;align=center;verticalAlign=middle;whiteSpace=wrap;rounded=0;fontStyle=1;fontSize=20;fontColor=#FFFFFF;" vertex="1" parent="1">
                    <mxGeometry x="330" y="-1020" width="60" height="30" as="geometry"/>
                </mxCell>
                <mxCell id="27" value="" style="rounded=0;whiteSpace=wrap;html=1;fillColor=#60a917;strokeColor=#2D7600;fontColor=#ffffff;" vertex="1" parent="1">
                    <mxGeometry x="290" y="-760" width="140" height="150" as="geometry"/>
                </mxCell>
                <mxCell id="28" value="Alert" style="text;html=1;align=center;verticalAlign=middle;whiteSpace=wrap;rounded=0;fontStyle=1;fontSize=20;fontColor=#FFFFFF;" vertex="1" parent="1">
                    <mxGeometry x="330" y="-750" width="60" height="30" as="geometry"/>
                </mxCell>
            </root>
        </mxGraphModel>
    </diagram>
</mxfile>